<svg width="209" height="50" viewBox="0 0 209 50" fill="none" xmlns="http://www.w3.org/2000/svg">
<path d="M13.2123 20.1301L9.1031 24.2393C8.67397 24.6554 8.67397 25.3446 9.1031 25.7737L13.2123 29.883C13.5764 30.2471 14.1616 30.2991 14.6037 30L16.0602 28.9727C16.6194 28.5956 16.6844 27.8024 16.2032 27.3212L14.6558 25.7737C14.2396 25.3446 14.2396 24.6554 14.6558 24.2393L16.2032 22.6918C16.6844 22.2107 16.6194 21.4174 16.0602 21.0273L14.6037 20.013C14.1616 19.7009 13.5764 19.7529 13.2123 20.1301Z" fill="#970E48"/>
<path d="M20.1304 36.801L24.2397 40.9102C24.6558 41.3263 25.345 41.3263 25.7741 40.9102L29.8703 36.801C30.2475 36.4239 30.2995 35.8387 30.0004 35.4096L28.9731 33.9401C28.583 33.394 27.7897 33.3289 27.3216 33.7971L25.7741 35.3446C25.345 35.7737 24.6558 35.7737 24.2397 35.3446L22.6922 33.7971C22.211 33.3289 21.4178 33.394 21.0277 33.9401L20.0134 35.4096C19.7013 35.8387 19.7533 36.4239 20.1304 36.801Z" fill="#970E48"/>
<path d="M36.8006 29.883L40.8968 25.7737C41.3259 25.3446 41.3259 24.6554 40.8968 24.2393L36.8006 20.13C36.4235 19.7529 35.8383 19.7139 35.4092 20.013L33.9397 21.0273C33.3936 21.4174 33.3155 22.2107 33.7967 22.6918L35.3441 24.2393C35.7733 24.6554 35.7733 25.3446 35.3441 25.7737L33.7967 27.3212C33.3155 27.8023 33.3936 28.5956 33.9397 28.9727L35.4092 30C35.8383 30.2991 36.4235 30.2471 36.8006 29.883Z" fill="#970E48"/>
<path d="M29.8703 13.212L25.7741 9.10274C25.345 8.68662 24.6558 8.68662 24.2397 9.10274L20.1304 13.212C19.7533 13.5891 19.7013 14.1743 20.0134 14.6034L21.0277 16.0598C21.4178 16.619 22.211 16.684 22.6922 16.2029L24.2397 14.6554C24.6558 14.2393 25.345 14.2393 25.7741 14.6554L27.3216 16.2029C27.7897 16.684 28.583 16.619 28.9731 16.0598L30.0004 14.6034C30.2995 14.1743 30.2475 13.5891 29.8703 13.212Z" fill="#970E48"/>
<path d="M9.53186 16.4629L8.06242 15.4356C7.63329 15.1365 7.04812 15.1755 6.671 15.5527L0.325098 21.9116C0.117035 22.1066 0 22.3927 0 22.6788V27.3342C0 27.6203 0.117035 27.8934 0.325098 28.1014L6.671 34.4603C7.04812 34.8244 7.63329 34.8764 8.06242 34.5774L9.53186 33.5501C10.078 33.1599 10.143 32.3797 9.6749 31.8986L3.55007 25.7737C3.12094 25.3446 3.12094 24.6554 3.55007 24.2393L9.6749 18.1144C10.143 17.6333 10.078 16.84 9.53186 16.4629Z" fill="#970E48"/>
<path d="M16.4496 40.4811L15.4353 41.9375C15.1232 42.3797 15.1752 42.9649 15.5523 43.329L21.9112 49.6879C22.1063 49.8959 22.3793 50 22.6784 50H27.3338C27.6199 50 27.893 49.8959 28.1011 49.6879L34.447 43.329C34.8241 42.9649 34.8761 42.3797 34.577 41.9375L33.5497 40.4811C33.1596 39.9349 32.3663 39.8569 31.8982 40.3381L25.7734 46.4629C25.3442 46.879 24.655 46.879 24.2389 46.4629L18.1141 40.3381C17.6329 39.8569 16.8397 39.9349 16.4496 40.4811Z" fill="#970E48"/>
<path fill-rule="evenodd" clip-rule="evenodd" d="M31.2484 23.368V26.632C31.2484 26.9181 31.1314 27.2042 30.9233 27.3992L27.3992 30.9233C27.1912 31.1314 26.9181 31.2484 26.632 31.2484H23.368C23.0819 31.2484 22.8089 31.1314 22.6008 30.9233L19.0767 27.3992C18.8687 27.2042 18.7646 26.9181 18.7646 26.632V23.368C18.7646 23.0819 18.8687 22.8089 19.0767 22.6008L22.6008 19.0767C22.8089 18.8817 23.0819 18.7646 23.368 18.7646H26.632C26.9181 18.7646 27.1912 18.8817 27.3992 19.0767L30.9233 22.6008C31.1314 22.8089 31.2484 23.0819 31.2484 23.368ZM21.6515 25.7738L24.2393 28.3615C24.6554 28.7777 25.3446 28.7777 25.7738 28.3615L28.3615 25.7738C28.7777 25.3446 28.7777 24.6554 28.3615 24.2393L25.7738 21.6515C25.3446 21.2224 24.6554 21.2224 24.2393 21.6515L21.6515 24.2393C21.2224 24.6554 21.2224 25.3446 21.6515 25.7738Z" fill="#C2995C"/>
<path fill-rule="evenodd" clip-rule="evenodd" d="M12.4837 4.61639V7.88037C12.4837 8.16645 12.3667 8.43953 12.1717 8.64759L8.64759 12.1717C8.43953 12.3797 8.16645 12.4837 7.88037 12.4837H4.61639C4.3303 12.4837 4.04421 12.3797 3.84915 12.1717L0.325098 8.64759C0.117035 8.43953 0 8.16645 0 7.88037V4.61639C0 4.3303 0.117035 4.04421 0.325098 3.84915L3.84915 0.325098C4.04421 0.117035 4.3303 0 4.61639 0H7.88037C8.16645 0 8.43953 0.117035 8.64759 0.325098L12.1717 3.84915C12.3667 4.04421 12.4837 4.3303 12.4837 4.61639ZM2.88687 7.0091L5.47464 9.59688C5.90377 10.026 6.59298 10.026 7.0091 9.59688L9.59688 7.0091C10.026 6.59298 10.026 5.90377 9.59688 5.47464L7.0091 2.88687C6.59298 2.47074 5.90377 2.47074 5.47464 2.88687L2.88687 5.47464C2.47074 5.90377 2.47074 6.59298 2.88687 7.0091Z" fill="#C2995C"/>
<path fill-rule="evenodd" clip-rule="evenodd" d="M50.0003 42.1326V45.3966C50.0003 45.6827 49.8833 45.9558 49.6883 46.1638L46.1642 49.6879C45.9561 49.896 45.6831 50 45.397 50H42.133C41.8469 50 41.5608 49.896 41.3658 49.6879L37.8417 46.1638C37.6336 45.9558 37.5166 45.6827 37.5166 45.3966V42.1326C37.5166 41.8465 37.6336 41.5735 37.8417 41.3654L41.3658 37.8413C41.5608 37.6333 41.8469 37.5162 42.133 37.5162H45.397C45.6831 37.5162 45.9561 37.6333 46.1642 37.8413L49.6883 41.3654C49.8833 41.5735 50.0003 41.8465 50.0003 42.1326ZM40.4035 44.5253L42.9912 47.1131C43.4204 47.5422 44.1096 47.5422 44.5257 47.1131L47.1135 44.5253C47.5426 44.1092 47.5426 43.42 47.1135 42.9909L44.5257 40.4031C44.1096 39.987 43.4204 39.987 42.9912 40.4031L40.4035 42.9909C39.9873 43.42 39.9873 44.1092 40.4035 44.5253Z" fill="#C2995C"/>
<path fill-rule="evenodd" clip-rule="evenodd" d="M45.397 12.4837H42.133C41.8469 12.4837 41.5608 12.3797 41.3658 12.1717L37.8417 8.64759C37.6336 8.43953 37.5166 8.16645 37.5166 7.88037V4.61639C37.5166 4.3303 37.6336 4.04421 37.8417 3.84915L41.3658 0.325098C41.5608 0.117035 41.8469 0 42.133 0H45.397C45.6831 0 45.9561 0.117035 46.1642 0.325098L49.6883 3.84915C49.8833 4.04421 50.0003 4.3303 50.0003 4.61639V7.88037C50.0003 8.16645 49.8833 8.43953 49.6883 8.64759L46.1642 12.1717C45.9561 12.3797 45.6831 12.4837 45.397 12.4837ZM42.9912 2.88687L40.4035 5.47464C39.9873 5.90377 39.9873 6.59298 40.4035 7.0091L42.9912 9.59688C43.4204 10.026 44.1096 10.026 44.5257 9.59688L47.1135 7.0091C47.5426 6.59298 47.5426 5.90377 47.1135 5.47464L44.5257 2.88687C44.1096 2.47074 43.4204 2.47074 42.9912 2.88687Z" fill="#C2995C"/>
<path fill-rule="evenodd" clip-rule="evenodd" d="M7.88037 50H4.61639C4.3303 50 4.04421 49.896 3.84915 49.6879L0.325098 46.1638C0.117035 45.9558 0 45.6827 0 45.3966V42.1326C0 41.8465 0.117035 41.5735 0.325098 41.3654L3.84915 37.8413C4.04421 37.6333 4.3303 37.5162 4.61639 37.5162H7.88037C8.16645 37.5162 8.43953 37.6333 8.64759 37.8413L12.1717 41.3654C12.3667 41.5735 12.4837 41.8465 12.4837 42.1326V45.3966C12.4837 45.6827 12.3667 45.9558 12.1717 46.1638L8.64759 49.6879C8.43953 49.896 8.16645 50 7.88037 50ZM5.47464 40.4031L2.88687 42.9909C2.47074 43.42 2.47074 44.1092 2.88687 44.5253L5.47464 47.1131C5.90377 47.5422 6.59298 47.5422 7.0091 47.1131L9.59688 44.5253C10.026 44.1092 10.026 43.42 9.59688 42.9909L7.0091 40.4031C6.59298 39.987 5.90377 39.987 5.47464 40.4031Z" fill="#C2995C"/>
<path d="M40.4812 33.5501L41.9376 34.5774C42.3667 34.8764 42.9519 34.8244 43.329 34.4603L49.6879 28.1014C49.883 27.8934 50 27.6203 50 27.3342V22.6788C50 22.3927 49.883 22.1066 49.6879 21.9116L43.329 15.5527C42.9519 15.1755 42.3667 15.1365 41.9376 15.4356L40.4812 16.4629C39.922 16.84 39.857 17.6333 40.3381 18.1144L46.463 24.2393C46.8791 24.6554 46.8791 25.3446 46.463 25.7737L40.3381 31.8986C39.857 32.3797 39.922 33.1599 40.4812 33.5501Z" fill="#970E48"/>
<path d="M33.5497 9.53186L34.577 8.06242C34.8761 7.63329 34.8241 7.04811 34.447 6.671L28.1011 0.325098C27.893 0.117035 27.6199 0 27.3338 0H22.6784C22.3793 0 22.1063 0.117035 21.9112 0.325098L15.5523 6.671C15.1752 7.04811 15.1232 7.63329 15.4353 8.06242L16.4496 9.53186C16.8397 10.078 17.6329 10.156 18.1141 9.6749L24.2389 3.55007C24.655 3.12094 25.3442 3.12094 25.7734 3.55007L31.8982 9.6749C32.3663 10.156 33.1596 10.078 33.5497 9.53186Z" fill="#970E48"/>
<path fill-rule="evenodd" clip-rule="evenodd" d="M64.5254 7.37323C64.6034 6.08584 64.6164 5.96881 64.6164 5.86478V2.6268C64.6164 2.52277 64.6034 2.40574 64.5254 1.10535H67.4513C68.7387 1.10535 69.5839 1.65151 69.5839 2.83487C69.5839 3.65411 69.1678 4.21328 68.5566 4.56439V4.69442L70.2471 7.37323H68.4006C67.9714 6.2939 67.9064 6.15086 67.8544 6.07284L67.2172 4.9545H66.1639V5.86478C66.1639 5.96881 66.1769 6.08584 66.2679 7.37323H64.5254ZM66.1379 4.10925H67.0091C67.6333 4.10925 67.9844 3.79715 67.9844 2.99091C67.9844 2.31471 67.6723 2.04163 67.0872 2.04163H66.1379V4.10925Z" fill="#C2995C"/>
<path d="M75.5395 2.13266V3.77115H76.3457C76.4758 3.77115 76.6058 3.77115 77.9062 3.68012V4.90249C76.6058 4.79845 76.4758 4.78545 76.3457 4.78545H75.5395V6.33291H76.9569C77.087 6.33291 77.23 6.31991 78.6995 6.22888V7.37323H73.875C73.966 5.96881 73.966 5.83877 73.966 5.69572V2.76985C73.966 2.65281 73.966 2.52277 73.875 1.10535H78.6995V2.26269C77.23 2.14566 77.087 2.13266 76.9569 2.13266H75.5395Z" fill="#C2995C"/>
<path d="M87.0091 5.2796V2.76985C87.0091 2.65281 86.9961 2.52277 86.905 1.10535H88.4265C88.3355 2.52277 88.3225 2.65281 88.3225 2.76985V5.76074C88.3225 5.90379 88.3355 6.04683 88.4135 7.20418L86.905 7.47726L84.2522 2.91289H84.1352V5.69572C84.1352 5.83877 84.1482 5.96881 84.2392 7.37323H82.7178C82.8088 5.96881 82.8088 5.83877 82.8088 5.69572V2.76985C82.8088 2.65281 82.8088 2.52277 82.7178 1.10535H84.5513L86.905 5.2796H87.0091Z" fill="#C2995C"/>
<path fill-rule="evenodd" clip-rule="evenodd" d="M96.6324 7.37327C96.3723 6.31995 96.3203 6.07288 96.2943 5.95584H93.7065C93.6675 6.07288 93.6155 6.31995 93.3684 7.37327H91.7949L93.5114 2.62684L93.8365 1.13139L95.9822 0.949341L98.1928 7.37327H96.6324ZM95.0459 2.10669H94.9289L94.0446 4.90253H95.9432L95.0459 2.10669Z" fill="#C2995C"/>
<path d="M104.317 0.949341C104.876 0.949341 105.605 1.07938 106.177 1.33946L105.709 2.78289C104.928 2.31475 104.447 1.98965 104.07 1.98965C103.121 1.98965 102.627 2.89993 102.627 4.30435C102.627 5.72177 103.251 6.43699 104.226 6.43699C104.668 6.43699 105.123 6.29394 105.748 6.05987L106.06 6.99615C105.305 7.34726 104.629 7.52931 103.979 7.52931C102.041 7.52931 100.91 6.1509 100.91 4.4734C100.91 2.8089 102.341 0.949341 104.317 0.949341Z" fill="#C2995C"/>
<path d="M109.636 7.37323C109.727 5.96881 109.727 5.83877 109.727 5.69572V2.76985C109.727 2.65281 109.727 2.52277 109.636 1.10535H111.469C111.378 2.52277 111.365 2.65281 111.365 2.76985V5.69572C111.365 5.83877 111.378 5.96881 111.469 7.37323H109.636Z" fill="#C2995C"/>
<path d="M119.337 5.6047L120.612 1.10535H122.341L122.939 7.37323H121.418C121.457 5.96881 121.457 5.82576 121.444 5.70873L121.223 2.69182H121.093L120.169 6.02082L119.922 7.26919L118.622 7.37323L117.296 2.69182H117.153L117.009 5.69572C117.009 5.82576 117.009 5.96881 117.048 7.37323H115.54L116.073 1.10535H117.959L119.22 5.6047H119.337Z" fill="#C2995C"/>
<path d="M127.009 7.37323C127.1 5.96881 127.1 5.83877 127.1 5.69572V2.76985C127.1 2.65281 127.1 2.52277 127.009 1.10535H128.842C128.751 2.52277 128.738 2.65281 128.738 2.76985V5.69572C128.738 5.83877 128.751 5.96881 128.842 7.37323H127.009Z" fill="#C2995C"/>
<path d="M134.942 2.13266V3.77115H135.748C135.878 3.77115 136.008 3.77115 137.309 3.68012V4.90249C136.008 4.79845 135.878 4.78545 135.748 4.78545H134.942V6.33291H136.372C136.489 6.33291 136.632 6.31991 138.115 6.22888V7.37323H133.277C133.368 5.96881 133.368 5.83877 133.368 5.69572V2.76985C133.368 2.65281 133.368 2.52277 133.277 1.10535H138.115V2.26269C136.632 2.14566 136.489 2.13266 136.372 2.13266H134.942Z" fill="#C2995C"/>
<path d="M146.411 5.2796V2.76985C146.411 2.65281 146.398 2.52277 146.307 1.10535H147.829C147.738 2.52277 147.725 2.65281 147.725 2.76985V5.76074C147.725 5.90379 147.738 6.04683 147.816 7.20418L146.307 7.47726L143.655 2.91289H143.551V5.69572C143.551 5.83877 143.564 5.96881 143.642 7.37323H142.12C142.211 5.96881 142.211 5.83877 142.211 5.69572V2.76985C142.211 2.65281 142.211 2.52277 142.12 1.10535H143.954L146.307 5.2796H146.411Z" fill="#C2995C"/>
<path d="M157.035 2.35372C155.669 2.19767 155.539 2.18467 155.409 2.18467H154.98V5.69572C154.98 5.83877 154.98 5.96881 155.071 7.37323H153.238C153.342 5.96881 153.355 5.83877 153.355 5.69572V2.18467H152.913C152.796 2.18467 152.653 2.19767 151.287 2.35372V1.10535H157.035V2.35372Z" fill="#C2995C"/>
<path fill-rule="evenodd" clip-rule="evenodd" d="M166.424 4.04427C166.424 5.66976 165.033 7.52931 163.03 7.52931C160.95 7.52931 159.896 6.11189 159.896 4.44739C159.896 2.8089 161.288 0.949341 163.29 0.949341C165.371 0.949341 166.424 2.36677 166.424 4.04427ZM163.173 6.476C164.331 6.476 164.708 5.4747 164.708 4.18731C164.708 3.05597 164.292 2.00266 163.121 2.00266C161.977 2.00266 161.613 3.00396 161.613 4.30435C161.613 5.42268 162.029 6.476 163.173 6.476Z" fill="#C2995C"/>
<path d="M178.27 5.6047L179.558 1.10535H181.287L181.873 7.37323H180.364C180.403 5.96881 180.403 5.82576 180.39 5.70873L180.156 2.69182H180.026L179.103 6.02082L178.869 7.26919L177.568 7.37323L176.242 2.69182H176.099L175.956 5.69572C175.956 5.82576 175.956 5.96881 175.995 7.37323H174.486L175.019 1.10535H176.905L178.153 5.6047H178.27Z" fill="#C2995C"/>
<path fill-rule="evenodd" clip-rule="evenodd" d="M189.727 7.37327C189.467 6.31995 189.415 6.07288 189.389 5.95584H186.801C186.762 6.07288 186.71 6.31995 186.45 7.37327H184.89L186.606 2.62684L186.931 1.13139L189.064 0.949341L191.288 7.37327H189.727ZM188.141 2.10669H188.024L187.139 4.90253H189.038L188.141 2.10669Z" fill="#C2995C"/>
<path d="M196.437 4.12225L197.139 2.39273C197.152 2.32771 197.191 2.19767 197.465 1.10535H199.194L197.204 5.14956V5.83877C197.204 5.9428 197.217 6.05983 197.322 7.37323H195.475C195.579 6.05983 195.579 5.9428 195.579 5.83877V5.31861L193.485 1.10535H195.293C195.579 2.19767 195.631 2.35372 195.657 2.41874L196.307 4.12225H196.437Z" fill="#C2995C"/>
<path fill-rule="evenodd" clip-rule="evenodd" d="M206.229 7.37327C205.956 6.31995 205.904 6.07288 205.878 5.95584H203.29C203.251 6.07288 203.199 6.31995 202.952 7.37327H201.379L203.095 2.62684L203.421 1.13139L205.566 0.949341L207.777 7.37327H206.229ZM204.643 2.10669H204.526L203.642 4.90253H205.54L204.643 2.10669Z" fill="#C2995C"/>
<path d="M63.9401 16.385H71.7035C71.8595 16.385 71.9896 16.502 72.0156 16.6451L72.3016 18.1405C72.3407 18.3356 72.1846 18.5176 71.9896 18.5176H71.0403C70.8062 18.5176 70.6502 18.7387 70.7282 18.9598L72.9258 24.8115C72.9778 24.9416 73.0949 25.0196 73.2249 25.0196H73.6931C73.8231 25.0196 73.9531 24.9286 73.9922 24.7985L75.9948 18.9468C76.0598 18.7387 75.9167 18.5176 75.6957 18.5176H74.7984C74.5903 18.5176 74.4473 18.3356 74.4863 18.1405L74.7594 16.6451C74.7854 16.502 74.9284 16.385 75.0715 16.385H80.9492C81.1053 16.385 81.2353 16.502 81.2743 16.6451L81.5474 18.1405C81.5864 18.3356 81.4304 18.5176 81.2353 18.5176H79.8569C79.7269 18.5176 79.6228 18.5827 79.5708 18.6867L74.9414 27.5163C74.9068 27.577 74.8938 27.6377 74.9024 27.6984L75.2925 32.1587C75.3186 32.3278 75.4486 32.4578 75.6176 32.4578H77.1391C77.2821 32.4578 77.4122 32.5619 77.4512 32.7049L77.8543 34.3434C77.9063 34.5515 77.7503 34.7465 77.5422 34.7465H67.8413C67.6332 34.7465 67.4772 34.5515 67.5292 34.3434L67.9323 32.7049C67.9714 32.5619 68.1014 32.4578 68.2444 32.4578H69.7139C69.8829 32.4578 70.026 32.3278 70.039 32.1717L70.4421 28.2706C70.4551 28.2056 70.4421 28.1405 70.4031 28.0755L65.3446 18.6867C65.2925 18.5827 65.1755 18.5176 65.0585 18.5176H63.6541C63.459 18.5176 63.3029 18.3356 63.342 18.1405L63.628 16.6451C63.6541 16.502 63.7841 16.385 63.9401 16.385Z" fill="#970E48"/>
<path d="M85.6953 16.385H93.5236C93.6797 16.385 93.8097 16.489 93.8357 16.6451L94.1738 18.1275C94.2128 18.3226 94.0568 18.5176 93.8617 18.5176H92.1712C91.9892 18.5176 91.8461 18.6607 91.8461 18.8427V26.6841C91.8461 28.5957 91.9501 30.0781 92.6914 30.9754C93.3026 31.7426 94.3429 32.1327 95.8903 32.1327C96.4495 32.1327 99.5184 31.8076 99.5184 28.8297V18.8427C99.5184 18.6607 99.3754 18.5176 99.1933 18.5176H97.7889C97.5808 18.5176 97.4248 18.3226 97.4768 18.1275L97.8019 16.6451C97.8409 16.489 97.971 16.385 98.114 16.385H104.174C104.33 16.385 104.46 16.489 104.499 16.6451L104.824 18.1275C104.876 18.3226 104.72 18.5176 104.512 18.5176H103.094C102.912 18.5176 102.769 18.6607 102.769 18.8427V27.7374C102.769 29.818 102.457 35.0586 94.941 35.0586C92.6264 35.0586 90.5457 34.4344 89.0373 33.121C87.7629 31.9637 87.3468 30.2472 87.3468 28.1405V18.8427C87.3468 18.6607 87.2037 18.5176 87.0217 18.5176H85.3572C85.1621 18.5176 85.0061 18.3226 85.0451 18.1275L85.3832 16.6451C85.4092 16.489 85.5392 16.385 85.6953 16.385Z" fill="#970E48"/>
<path fill-rule="evenodd" clip-rule="evenodd" d="M138.323 16.6061L144.057 32.2498C144.109 32.3668 144.226 32.4578 144.356 32.4578H145.865C146.073 32.4578 146.229 32.6529 146.177 32.8479L145.813 34.4994C145.787 34.6425 145.644 34.7465 145.501 34.7465H137.555C137.399 34.7465 137.269 34.6425 137.243 34.4994L136.879 32.8479C136.827 32.6529 136.983 32.4578 137.191 32.4578H138.765C138.973 32.4578 139.129 32.2498 139.077 32.0417L138.349 29.662C138.31 29.532 138.18 29.4279 138.036 29.4279H132.562C132.419 29.4279 132.289 29.532 132.25 29.662L131.561 32.0417C131.496 32.2498 131.652 32.4578 131.86 32.4578H133.42C133.628 32.4578 133.771 32.6529 133.732 32.8479L133.368 34.4994C133.329 34.6425 133.199 34.7465 133.056 34.7465H127.035C126.892 34.7465 126.762 34.6425 126.723 34.4994L126.359 32.8479C126.32 32.6529 126.463 32.4578 126.671 32.4578H127.815C127.945 32.4578 128.062 32.3668 128.114 32.2498L133.849 16.6061C133.888 16.476 134.018 16.385 134.148 16.385H138.023C138.154 16.385 138.271 16.476 138.323 16.6061ZM133.368 27.2953H137.191C137.412 27.2953 137.568 27.0872 137.503 26.8792L135.618 20.6503C135.566 20.5203 135.449 20.4162 135.306 20.4162H135.189C135.046 20.4162 134.929 20.5203 134.89 20.6503L133.069 26.8792C133.004 27.0872 133.16 27.2953 133.368 27.2953Z" fill="#970E48"/>
<path d="M195.878 16.5281L203.589 27.7634C203.641 27.8545 203.745 27.9065 203.849 27.9065H204.07V21.6646C204.07 21.6559 204.07 21.6473 204.07 21.6386L203.823 18.8167C203.81 18.6477 203.667 18.5176 203.498 18.5176H202.055C201.847 18.5176 201.704 18.3226 201.743 18.1275L202.081 16.6451C202.107 16.489 202.237 16.385 202.393 16.385H208.31C208.466 16.385 208.596 16.489 208.622 16.6451L208.96 18.1275C208.999 18.3226 208.843 18.5176 208.635 18.5176H207.282C207.113 18.5176 206.983 18.6477 206.97 18.8167L206.71 21.6386C206.71 21.6473 206.71 21.6559 206.71 21.6646V28.8297C206.71 28.8384 206.71 28.8471 206.71 28.8557L207.113 33.3941C207.126 33.5502 207.048 33.6802 206.905 33.7322L203.524 34.9676C203.381 35.0196 203.225 34.9676 203.147 34.8505L194.604 22.4318C194.552 22.3538 194.448 22.3018 194.343 22.3018H194.122L194.278 32.1457C194.278 32.3148 194.422 32.4578 194.604 32.4578H196.216C196.424 32.4578 196.58 32.6529 196.541 32.8479L196.164 34.4994C196.138 34.6425 196.008 34.7465 195.852 34.7465H189.701C189.545 34.7465 189.415 34.6425 189.376 34.4994L189.012 32.8479C188.973 32.6529 189.129 32.4578 189.324 32.4578H190.689C190.858 32.4578 191.001 32.3148 191.014 32.1457L191.431 21.4695C191.431 21.4609 191.431 21.4479 191.431 21.4305L191.197 18.8167C191.184 18.6477 191.04 18.5176 190.871 18.5176H189.389C189.181 18.5176 189.038 18.3356 189.077 18.1275L189.402 16.6451C189.441 16.489 189.571 16.385 189.727 16.385H195.605C195.709 16.385 195.813 16.437 195.878 16.5281Z" fill="#970E48"/>
<path d="M163.641 16.0209H148.374C148.283 16.0209 148.192 16.0599 148.127 16.1379L147.464 16.9311C147.412 16.9962 147.386 17.0872 147.399 17.1782L147.945 21.7946C147.958 21.9507 148.101 22.0807 148.257 22.0807H149.622C149.779 22.0807 149.909 21.9637 149.935 21.8076L150.377 19.0768C150.403 18.9207 150.533 18.8037 150.689 18.8037H153.602C153.784 18.8037 153.927 18.9598 153.927 19.1418L153.628 32.1457C153.628 32.3148 153.485 32.4578 153.303 32.4578L150.871 32.4708C150.663 32.4708 150.507 32.6659 150.559 32.8609L150.923 34.4994C150.949 34.6425 151.079 34.7465 151.235 34.7465H156.007H160.793C160.936 34.7465 161.066 34.6425 161.105 34.4994L161.469 32.8479C161.508 32.6529 161.365 32.4578 161.157 32.4578H158.712C158.543 32.4578 158.4 32.3148 158.4 32.1457L158.101 19.1418C158.088 18.9598 158.231 18.8037 158.413 18.8037H161.326C161.482 18.8037 161.625 18.9207 161.651 19.0768L162.08 21.8076C162.106 21.9637 162.249 22.0807 162.405 22.0807H163.758C163.927 22.0807 164.057 21.9507 164.083 21.7946L164.629 17.1782C164.642 17.0872 164.603 16.9962 164.551 16.9311L163.888 16.1379C163.823 16.0599 163.732 16.0209 163.641 16.0209Z" fill="#970E48"/>
<path d="M175.019 12.3928H179.051C179.233 12.3928 179.376 12.5359 179.376 12.7179V14.0703C179.376 14.2394 179.246 14.3824 179.09 14.3954L174.057 14.8376C173.979 14.8376 173.927 14.7595 173.953 14.6945L174.72 12.6139C174.759 12.4838 174.876 12.3928 175.019 12.3928Z" fill="#970E48"/>
<path fill-rule="evenodd" clip-rule="evenodd" d="M177.672 16.255L183.537 32.2498C183.589 32.3668 183.706 32.4579 183.836 32.4579H185.344C185.552 32.4579 185.708 32.6529 185.656 32.848L185.292 34.4995C185.266 34.6425 185.136 34.7465 184.98 34.7465H177.035C176.879 34.7465 176.749 34.6425 176.723 34.4995L176.359 32.848C176.307 32.6529 176.463 32.4579 176.671 32.4579H178.244C178.465 32.4579 178.608 32.2498 178.556 32.0417L177.828 29.662C177.789 29.532 177.659 29.4279 177.516 29.4279H172.041C171.898 29.4279 171.768 29.532 171.729 29.662L171.04 32.0417C170.975 32.2498 171.131 32.4579 171.352 32.4579H172.9C173.108 32.4579 173.251 32.6529 173.212 32.848L172.848 34.4995C172.809 34.6425 172.679 34.7465 172.535 34.7465H166.515C166.372 34.7465 166.242 34.6425 166.203 34.4995L165.838 32.848C165.799 32.6529 165.942 32.4579 166.151 32.4579H167.295C167.425 32.4579 167.542 32.3668 167.594 32.2498L173.329 16.5801C173.381 16.4631 173.485 16.385 173.602 16.372L177.347 16.0469C177.49 16.0339 177.62 16.112 177.672 16.255ZM172.848 27.2953H176.671C176.892 27.2953 177.048 27.0873 176.983 26.8792L175.097 20.6503C175.058 20.5203 174.928 20.4162 174.785 20.4162H174.668C174.525 20.4162 174.408 20.5203 174.369 20.6503L172.548 26.8792C172.483 27.0873 172.639 27.2953 172.848 27.2953Z" fill="#970E48"/>
<path d="M107.126 26.2289C107.126 17.6594 115.006 16.1379 116.359 16.0209C116.367 16.0209 116.38 16.0209 116.398 16.0209C118.66 16.0209 121.105 16.372 122.354 16.8011C122.414 16.8271 122.466 16.8705 122.51 16.9311L123.225 17.9715C123.264 18.0365 123.29 18.1275 123.264 18.2055L122.484 22.5618C122.458 22.7179 122.328 22.8219 122.171 22.8219H120.806C120.65 22.8219 120.507 22.7049 120.481 22.5488L120.143 19.935C120.13 19.831 120.065 19.727 119.961 19.688C119.038 19.2198 117.919 18.9468 116.827 18.9468C115.722 18.9468 114.616 19.2198 113.719 19.818C113.693 19.8354 113.667 19.857 113.641 19.883C112.809 20.8583 111.872 23.03 111.872 25.6047C111.872 29.4279 113.823 32.4708 117.581 32.4708C118.309 32.4708 118.973 32.4188 119.74 32.0807C119.818 32.0417 119.883 31.9767 119.909 31.8986L121.144 28.6867C121.196 28.5566 121.313 28.4786 121.443 28.4786H122.809C123.017 28.4786 123.16 28.6607 123.134 28.8557L122.263 34.0183C122.237 34.1353 122.158 34.2393 122.041 34.2784C120.559 34.7465 118.218 35.1106 116.541 35.1106C111.118 35.1106 107.126 31.7166 107.126 26.2289Z" fill="#970E48"/>
<path d="M67.5813 46.2939C67.5813 46.2029 67.5683 46.0599 67.5293 45.2926H68.1925V47.0872C67.6203 47.3993 67.0481 47.5033 66.593 47.5033C65.1496 47.5033 64.5254 46.411 64.5254 45.3446C64.5254 44.2003 65.3576 42.8739 66.8011 42.8739C67.1782 42.8739 67.7634 42.9649 68.2185 43.147L67.9974 43.8362C67.3732 43.6281 66.8921 43.4591 66.606 43.4591C65.7217 43.4591 65.2016 44.2393 65.2016 45.2016C65.2016 46.3459 65.8518 46.9311 66.697 46.9311C66.9571 46.9311 67.2432 46.8661 67.5813 46.7491V46.2939Z" fill="#000005"/>
<path fill-rule="evenodd" clip-rule="evenodd" d="M73.9399 45.0716C73.9399 46.1769 73.0947 47.5033 71.6642 47.5033C70.2338 47.5033 69.5576 46.3719 69.5576 45.3056C69.5576 44.2003 70.4029 42.8739 71.8463 42.8739C73.2767 42.8739 73.9399 44.0052 73.9399 45.0716ZM71.7683 46.9051C72.7956 46.9051 73.2637 46.1379 73.2637 45.1886C73.2637 44.2653 72.7566 43.4721 71.7423 43.4721C70.715 43.4721 70.2468 44.2393 70.2468 45.2016C70.2468 46.1249 70.754 46.9051 71.7683 46.9051Z" fill="#000005"/>
<path fill-rule="evenodd" clip-rule="evenodd" d="M78.0751 45.0975C78.6863 45.2146 78.9854 45.5267 78.9854 46.0728C78.9854 46.8921 78.2961 47.3992 77.4769 47.3992H75.7344C75.7734 46.554 75.7734 46.476 75.7734 46.3979V43.9922C75.7734 43.8882 75.7734 43.8232 75.7344 42.9779H77.3859C78.2051 42.9779 78.7123 43.29 78.7123 43.9922C78.7123 44.4994 78.4392 44.8635 78.0751 45.0195V45.0975ZM77.3208 43.4591H76.4236V44.8895H77.3729C77.828 44.8895 78.0751 44.6424 78.0751 44.0702C78.0751 43.6021 77.893 43.4591 77.3208 43.4591ZM77.4379 46.9311C78.0491 46.9311 78.3352 46.671 78.3352 46.1118C78.3352 45.5397 78.0361 45.3446 77.3469 45.3446H76.4236V46.9311H77.4379Z" fill="#000005"/>
<path d="M80.8584 47.3992C80.9104 46.554 80.9104 46.476 80.9104 46.3979V43.9922C80.9104 43.9012 80.9104 43.8232 80.8584 42.9779H81.6126C81.5736 43.8232 81.5736 43.9012 81.5736 43.9922V46.3979C81.5736 46.476 81.5736 46.554 81.6126 47.3992H80.8584Z" fill="#000005"/>
<path d="M84.6163 43.4721V44.9675H85.3185C85.4095 44.9675 85.5005 44.9675 86.4238 44.9155V45.5007C85.5005 45.4616 85.4095 45.4617 85.3185 45.4617H84.6163V46.9051H85.8777C85.9557 46.9051 86.0467 46.8921 86.983 46.8401V47.3992H83.9141C83.9661 46.554 83.9661 46.476 83.9661 46.3979V43.9922C83.9661 43.9012 83.9661 43.8232 83.9141 42.9779H86.983V43.5371C86.0467 43.4851 85.9557 43.4721 85.8777 43.4721H84.6163Z" fill="#000005"/>
<path fill-rule="evenodd" clip-rule="evenodd" d="M88.8691 47.3992C88.9212 46.554 88.9212 46.476 88.9212 46.3979V43.9922C88.9212 43.9012 88.9212 43.8232 88.8691 42.9779H90.4296C91.2879 42.9779 91.899 43.342 91.899 44.1613C91.899 44.7854 91.574 45.1756 91.1188 45.4356V45.5137L92.3932 47.3992H91.587C91.2749 46.8011 91.1968 46.658 91.1578 46.593L90.4946 45.5657H89.5583V46.3979C89.5583 46.476 89.5583 46.554 89.6104 47.3992H88.8691ZM89.5453 45.1105H90.3906C90.8587 45.1105 91.2358 44.9285 91.2358 44.2263C91.2358 43.6411 90.8977 43.4591 90.4166 43.4591H89.5453V45.1105Z" fill="#000005"/>
<path d="M97.0348 46.4629V43.9922C97.0348 43.9012 97.0348 43.8232 96.9958 42.9779H97.672C97.633 43.8232 97.633 43.9012 97.633 43.9922V46.2679C97.633 46.3589 97.633 46.4239 97.685 47.2822L96.9828 47.4773L94.7592 43.7841H94.6941V46.3979C94.6941 46.476 94.6941 46.554 94.7332 47.3992H94.0439C94.096 46.554 94.096 46.476 94.096 46.3979V43.9922C94.096 43.9012 94.096 43.8232 94.0439 42.9779H94.8892L96.9698 46.4629H97.0348Z" fill="#000005"/>
<path fill-rule="evenodd" clip-rule="evenodd" d="M103.862 45.0716C103.862 46.1769 103.017 47.5033 101.573 47.5033C100.143 47.5033 99.4795 46.3719 99.4795 45.3056C99.4795 44.2003 100.325 42.8739 101.768 42.8739C103.199 42.8739 103.862 44.0052 103.862 45.0716ZM101.677 46.9051C102.704 46.9051 103.173 46.1379 103.173 45.1886C103.173 44.2653 102.678 43.4721 101.664 43.4721C100.637 43.4721 100.169 44.2393 100.169 45.2016C100.169 46.1249 100.676 46.9051 101.677 46.9051Z" fill="#000005"/>
<path fill-rule="evenodd" clip-rule="evenodd" d="M109.44 42.9779C110.637 42.9779 111.391 43.7321 111.391 44.9675C111.391 46.2939 110.598 47.3992 109.336 47.3992H107.711C107.75 46.632 107.75 46.502 107.75 46.3979V43.9792C107.75 43.8882 107.75 43.7581 107.711 42.9779H109.44ZM109.232 46.9051C110.234 46.9051 110.702 46.2289 110.702 45.0585C110.702 43.9532 110.247 43.4721 109.167 43.4721H108.413V46.9051H109.232Z" fill="#000005"/>
<path d="M113.862 43.4721V44.9675H114.577C114.655 44.9675 114.759 44.9675 115.683 44.9155V45.5007C114.759 45.4616 114.655 45.4617 114.577 45.4617H113.862V46.9051H115.123C115.214 46.9051 115.305 46.8921 116.229 46.8401V47.3992H113.173C113.225 46.554 113.225 46.476 113.225 46.3979V43.9922C113.225 43.9012 113.225 43.8232 113.173 42.9779H116.229V43.5371C115.305 43.4851 115.214 43.4721 115.123 43.4721H113.862Z" fill="#000005"/>
<path d="M119.805 46.9051C119.883 46.9051 119.974 46.8921 120.911 46.8401V47.3992H118.128C118.167 46.554 118.167 46.476 118.167 46.3979V43.9922C118.167 43.9012 118.167 43.8232 118.128 42.9779H118.882C118.83 43.8232 118.83 43.9012 118.83 43.9922V46.9051H119.805Z" fill="#000005"/>
<path d="M125.149 43.4721V44.9675H125.864C125.942 44.9675 126.046 44.9675 126.97 44.9155V45.5007C126.046 45.4616 125.942 45.4617 125.864 45.4617H125.149V46.9051H126.411C126.502 46.9051 126.593 46.8921 127.516 46.8401V47.3992H124.46C124.512 46.554 124.512 46.476 124.512 46.3979V43.9922C124.512 43.9012 124.512 43.8232 124.46 42.9779H127.516V43.5371C126.593 43.4851 126.502 43.4721 126.411 43.4721H125.149Z" fill="#000005"/>
<path d="M128.908 47.1912L129.103 46.593C129.923 46.8401 130.222 46.9571 130.547 46.9571C131.002 46.9571 131.275 46.7491 131.275 46.2289C131.275 45.7348 130.729 45.5787 130.183 45.3576C129.623 45.1366 129.038 44.8765 129.038 44.1223C129.038 43.4071 129.844 42.8739 130.651 42.8739C131.015 42.8739 131.457 42.9779 131.808 43.121L131.613 43.7062C130.885 43.5241 130.599 43.4591 130.365 43.4591C129.949 43.4591 129.662 43.6151 129.662 44.0312C129.662 44.4344 130.014 44.6034 130.456 44.7725C131.106 45.0325 131.925 45.2666 131.925 46.1249C131.925 46.9961 131.119 47.5033 130.248 47.5033C129.844 47.5033 129.35 47.3602 128.908 47.1912Z" fill="#000005"/>
<path d="M136.58 43.5371C135.657 43.4851 135.553 43.4721 135.475 43.4721H135.059V46.3979C135.059 46.476 135.059 46.554 135.098 47.3992H134.344C134.396 46.554 134.396 46.476 134.396 46.3979V43.4721H133.967C133.889 43.4721 133.785 43.4851 132.861 43.5371V42.9779H136.58V43.5371Z" fill="#000005"/>
<path fill-rule="evenodd" clip-rule="evenodd" d="M139.454 42.8608L141.144 47.3992H140.429C140.195 46.567 140.169 46.4629 140.13 46.3979L140.065 46.1768H138.062L137.984 46.3979C137.958 46.4629 137.932 46.567 137.698 47.3992H136.996L138.336 43.8621L138.596 42.9909L139.454 42.8608ZM138.231 45.6957H139.883L139.09 43.498H139.025L138.231 45.6957Z" fill="#000005"/>
<path fill-rule="evenodd" clip-rule="evenodd" d="M144.305 42.9779C145.501 42.9779 146.242 43.7321 146.242 44.9675C146.242 46.2939 145.462 47.3992 144.201 47.3992H142.575C142.601 46.632 142.614 46.502 142.614 46.3979V43.9792C142.614 43.8882 142.601 43.7581 142.575 42.9779H144.305ZM144.097 46.9051C145.098 46.9051 145.566 46.2289 145.566 45.0585C145.566 43.9532 145.111 43.4721 144.032 43.4721H143.277V46.9051H144.097Z" fill="#000005"/>
<path fill-rule="evenodd" clip-rule="evenodd" d="M151.912 45.0716C151.912 46.1769 151.066 47.5033 149.623 47.5033C148.192 47.5033 147.529 46.3719 147.529 45.3056C147.529 44.2003 148.375 42.8739 149.818 42.8739C151.248 42.8739 151.912 44.0052 151.912 45.0716ZM149.727 46.9051C150.754 46.9051 151.222 46.1379 151.222 45.1886C151.222 44.2653 150.715 43.4721 149.714 43.4721C148.674 43.4721 148.205 44.2393 148.205 45.2016C148.205 46.1249 148.713 46.9051 149.727 46.9051Z" fill="#000005"/>
<path d="M163.251 43.3941C164.057 43.056 164.499 42.861 165.058 42.861C165.864 42.861 166.463 43.2251 166.463 44.0963C166.463 45.1236 165.682 45.8649 164.239 46.8141L164.278 46.8922L166.58 46.7231L166.567 47.3603H163.407L163.225 46.9052C164.499 45.9949 165.773 45.2537 165.773 44.1483C165.773 43.6932 165.513 43.4331 165.032 43.4331C164.733 43.4331 164.252 43.6672 163.485 43.9923L163.251 43.3941Z" fill="#000005"/>
<path fill-rule="evenodd" clip-rule="evenodd" d="M167.867 45.3187C167.867 44.0573 168.986 42.861 170.143 42.861C171.404 42.861 172.184 43.7322 172.184 45.0196C172.184 46.268 171.079 47.4643 169.922 47.4643C168.66 47.4643 167.867 46.6061 167.867 45.3187ZM171.495 45.0846C171.495 44.1093 171.027 43.4851 170.039 43.4851C169.103 43.4851 168.569 44.3304 168.569 45.2537C168.569 46.229 169.038 46.8532 170 46.8532C170.962 46.8532 171.495 45.9949 171.495 45.0846Z" fill="#000005"/>
<path d="M173.407 43.3941C174.226 43.056 174.655 42.861 175.227 42.861C176.021 42.861 176.632 43.2251 176.632 44.0963C176.632 45.1236 175.852 45.8649 174.408 46.8141L174.447 46.8922L176.749 46.7231L176.736 47.3603H173.576L173.381 46.9052C174.655 45.9949 175.943 45.2537 175.943 44.1483C175.943 43.6932 175.683 43.4331 175.188 43.4331C174.902 43.4331 174.408 43.6672 173.641 43.9923L173.407 43.3941Z" fill="#000005"/>
<path d="M181.56 47.3603H180.741V47.8934C180.741 47.9715 180.741 48.0495 180.793 48.8947L180.09 49.0638C180.129 48.2055 180.129 48.1275 180.129 48.0495V47.3603H177.763L177.477 46.9702L179.193 43.9923C179.219 43.9402 179.271 43.8362 179.856 42.5488L180.519 42.8869L178.244 46.8141L178.283 46.8921L180.129 46.8271V46.32C180.129 46.2289 180.129 46.1639 180.09 45.3057L180.793 45.1496L180.741 46.7101V46.8271L181.56 46.8011V47.3603Z" fill="#000005"/>
<path d="M189.61 43.3941C190.416 43.056 190.845 42.861 191.418 42.861C192.211 42.861 192.822 43.2251 192.822 44.0963C192.822 45.1236 192.042 45.8649 190.598 46.8141L190.637 46.8922L192.939 46.7231L192.926 47.3603H189.766L189.584 46.9052C190.845 45.9949 192.133 45.2537 192.133 44.1483C192.133 43.6932 191.873 43.4331 191.379 43.4331C191.092 43.4331 190.611 43.6672 189.844 43.9923L189.61 43.3941Z" fill="#000005"/>
<path fill-rule="evenodd" clip-rule="evenodd" d="M194.227 45.3187C194.227 44.0573 195.345 42.861 196.489 42.861C197.751 42.861 198.544 43.7322 198.544 45.0196C198.544 46.268 197.426 47.4643 196.281 47.4643C195.02 47.4643 194.227 46.6061 194.227 45.3187ZM197.855 45.0846C197.855 44.1093 197.387 43.4851 196.398 43.4851C195.449 43.4851 194.916 44.3304 194.916 45.2537C194.916 46.229 195.384 46.8532 196.359 46.8532C197.321 46.8532 197.855 45.9949 197.855 45.0846Z" fill="#000005"/>
<path d="M200.351 45.7608C200.806 45.6568 201.015 45.6178 201.366 45.5008C201.86 45.3447 202.107 44.8636 202.107 44.2004C202.107 43.6932 201.847 43.4331 201.366 43.4331C201.067 43.4331 200.585 43.6672 199.818 43.9923L199.584 43.3941C200.39 43.056 200.833 42.861 201.392 42.861C202.198 42.861 202.796 43.2381 202.796 44.1093C202.796 44.8115 202.497 45.2667 201.977 45.6048L201.99 45.6828C202.627 45.8649 202.991 46.281 202.991 47.0742C202.991 48.3616 202.094 49.0508 200.82 49.0508C200.403 49.0508 199.896 48.9728 199.454 48.8167L199.675 48.1666C200.494 48.4526 200.754 48.5697 201.041 48.5697C201.925 48.5697 202.302 47.8805 202.302 47.1002C202.302 46.346 201.912 46.0989 201.379 46.0989C201.106 46.0989 200.793 46.164 200.468 46.255L200.351 45.7608Z" fill="#000005"/>
<path fill-rule="evenodd" clip-rule="evenodd" d="M204.161 45.3187C204.161 44.0573 205.266 42.861 206.424 42.861C207.685 42.861 208.465 43.7322 208.465 45.0196C208.465 46.268 207.36 47.4643 206.203 47.4643C204.941 47.4643 204.161 46.6061 204.161 45.3187ZM207.776 45.0846C207.776 44.1093 207.308 43.4851 206.333 43.4851C205.383 43.4851 204.85 44.3304 204.85 45.2537C204.85 46.229 205.318 46.8532 206.294 46.8532C207.243 46.8532 207.776 45.9949 207.776 45.0846Z" fill="#000005"/>
<path fill-rule="evenodd" clip-rule="evenodd" d="M184.122 45.4877C183.953 45.3317 183.953 45.0716 184.122 44.9026L185.279 43.7452C185.435 43.5892 185.695 43.5892 185.864 43.7452L187.022 44.9026C187.191 45.0716 187.191 45.3317 187.022 45.4877L185.864 46.6581C185.695 46.8141 185.435 46.8141 185.279 46.6581L184.122 45.4877ZM185.058 45.1886C185.058 45.3187 185.11 45.4617 185.214 45.5528C185.318 45.6568 185.448 45.7088 185.578 45.7088C185.708 45.7088 185.838 45.6568 185.942 45.5528C186.046 45.4617 186.098 45.3187 186.098 45.1886C186.098 45.0586 186.046 44.9286 185.942 44.8245C185.734 44.6165 185.409 44.6165 185.214 44.8245C185.11 44.9286 185.058 45.0586 185.058 45.1886Z" fill="#C2995C"/>
<path d="M157.776 48.7646H157.36V41.5995H157.776V48.7646Z" fill="#C2995C"/>
</svg>
